<svg width="1280" height="420" viewBox="0 0 1280 420" fill="none" xmlns="http://www.w3.org/2000/svg">
  <defs>
    <linearGradient id="pbg" x1="0" y1="0" x2="1280" y2="420" gradientUnits="userSpaceOnUse">
      <stop offset="0" stop-color="#05060f"/><stop offset="1" stop-color="#0a1020"/>
    </linearGradient>
    <linearGradient id="pbrand" x1="0" y1="0" x2="1" y2="0">
      <stop offset="0" stop-color="#a78bfa"/><stop offset="0.5" stop-color="#38bdf8"/><stop offset="1" stop-color="#22d3ee"/>
    </linearGradient>
    <linearGradient id="spark" x1="0" y1="0" x2="0" y2="1">
      <stop offset="0" stop-color="#34d399" stop-opacity="0.3"/><stop offset="1" stop-color="#34d399" stop-opacity="0"/>
    </linearGradient>
  </defs>
  <rect width="1280" height="420" fill="url(#pbg)"/>

  <!-- ============ CARD 1: ARENA ============ -->
  <g transform="translate(30,40)">
    <rect width="390" height="340" rx="16" fill="#0d1226" stroke="#f59e0b" stroke-opacity="0.35"/>
    <rect width="390" height="34" rx="16" fill="#111735"/>
    <circle cx="20" cy="17" r="5" fill="#f87171"/><circle cx="38" cy="17" r="5" fill="#fbbf24"/><circle cx="56" cy="17" r="5" fill="#34d399"/>
    <text x="195" y="22" text-anchor="middle" font-family="Segoe UI, Arial" font-size="12" fill="#8b93b5">/arena — 450+ live markets</text>

    <text x="24" y="66" font-family="Segoe UI, Arial" font-size="19" font-weight="800" fill="#ffffff">The <tspan fill="url(#pbrand)">Arena</tspan></text>
    <rect x="255" y="50" width="112" height="22" rx="11" fill="#34d399" fill-opacity="0.12" stroke="#34d399" stroke-opacity="0.5"/>
    <text x="311" y="65" text-anchor="middle" font-family="Segoe UI, Arial" font-size="11" fill="#6ee7b7">● BINANCE LIVE</text>

    <text x="24" y="106" font-family="Segoe UI, Arial" font-size="30" font-weight="800" fill="#ffffff">$63,551.03</text>
    <text x="24" y="124" font-family="Segoe UI, Arial" font-size="11" fill="#64748b">BTC/USDT · entry locks on click</text>

    <!-- sparkline -->
    <polygon points="24,205 74,190 124,196 174,170 224,178 274,150 324,158 366,138 366,215 24,215" fill="url(#spark)"/>
    <path d="M24 205 74 190 124 196 174 170 224 178 274 150 324 158 366 138" stroke="#34d399" stroke-width="2.5" fill="none" stroke-linecap="round"/>
    <circle cx="366" cy="138" r="4.5" fill="#22d3ee"/>

    <!-- expiry chips -->
    <g font-family="Segoe UI, Arial" font-size="11" font-weight="600">
      <rect x="24" y="228" width="38" height="22" rx="8" fill="#8b5cf6" fill-opacity="0.25" stroke="#8b5cf6" stroke-opacity="0.6"/><text x="43" y="243" text-anchor="middle" fill="#c4b5fd">5s</text>
      <rect x="68" y="228" width="38" height="22" rx="8" fill="#ffffff" fill-opacity="0.05"/><text x="87" y="243" text-anchor="middle" fill="#64748b">15s</text>
      <rect x="112" y="228" width="38" height="22" rx="8" fill="#ffffff" fill-opacity="0.05"/><text x="131" y="243" text-anchor="middle" fill="#64748b">30s</text>
      <rect x="156" y="228" width="38" height="22" rx="8" fill="#ffffff" fill-opacity="0.05"/><text x="175" y="243" text-anchor="middle" fill="#64748b">1m</text>
      <text x="366" y="243" text-anchor="end" fill="#6ee7b7">win +45 XP</text>
    </g>

    <!-- long / short -->
    <rect x="24" y="264" width="165" height="52" rx="14" fill="#34d399" fill-opacity="0.12" stroke="#34d399" stroke-opacity="0.6" stroke-width="2"/>
    <text x="106" y="296" text-anchor="middle" font-family="Segoe UI, Arial" font-size="16" font-weight="800" fill="#6ee7b7">▲ LONG</text>
    <rect x="201" y="264" width="165" height="52" rx="14" fill="#f87171" fill-opacity="0.1" stroke="#f87171" stroke-opacity="0.6" stroke-width="2"/>
    <text x="283" y="296" text-anchor="middle" font-family="Segoe UI, Arial" font-size="16" font-weight="800" fill="#fca5a5">▼ SHORT</text>
  </g>

  <!-- ============ CARD 2: TIME MACHINE ============ -->
  <g transform="translate(445,40)">
    <rect width="390" height="340" rx="16" fill="#0d1226" stroke="#22d3ee" stroke-opacity="0.35"/>
    <rect width="390" height="34" rx="16" fill="#111735"/>
    <circle cx="20" cy="17" r="5" fill="#f87171"/><circle cx="38" cy="17" r="5" fill="#fbbf24"/><circle cx="56" cy="17" r="5" fill="#34d399"/>
    <text x="195" y="22" text-anchor="middle" font-family="Segoe UI, Arial" font-size="12" fill="#8b93b5">/arena/replay — trade real history</text>

    <text x="24" y="66" font-family="Segoe UI, Arial" font-size="19" font-weight="800" fill="#ffffff">Time <tspan fill="url(#pbrand)">Machine</tspan></text>
    <rect x="285" y="50" width="82" height="22" rx="11" fill="#22d3ee" fill-opacity="0.12" stroke="#22d3ee" stroke-opacity="0.5"/>
    <text x="326" y="65" text-anchor="middle" font-family="Segoe UI, Arial" font-size="11" fill="#67e8f9">60× SPEED</text>

    <text x="24" y="100" font-family="Segoe UI, Arial" font-size="12" fill="#64748b">ETH · random day from the last 365 · 1m candles</text>

    <!-- progress -->
    <rect x="24" y="112" width="342" height="6" rx="3" fill="#ffffff" fill-opacity="0.08"/>
    <rect x="24" y="112" width="230" height="6" rx="3" fill="url(#pbrand)"/>

    <!-- replay chart w/ entry line -->
    <path d="M24 220 54 210 84 224 114 196 144 204 174 180 204 190 234 160 264 172 294 148" stroke="#34d399" stroke-width="2.5" fill="none" stroke-linecap="round"/>
    <line x1="24" y1="196" x2="366" y2="196" stroke="#a78bfa" stroke-width="1.5" stroke-dasharray="7 5"/>
    <circle cx="114" cy="196" r="4" fill="#a78bfa"/>
    <circle cx="294" cy="148" r="4.5" fill="#22d3ee"/>
    <text x="366" y="190" text-anchor="end" font-family="Segoe UI, Arial" font-size="10" fill="#a78bfa">entry</text>

    <!-- position card -->
    <rect x="24" y="248" width="342" height="68" rx="12" fill="#8b5cf6" fill-opacity="0.1" stroke="#8b5cf6" stroke-opacity="0.4"/>
    <text x="40" y="276" font-family="Segoe UI, Arial" font-size="13" font-weight="700" fill="#ffffff">▲ LONG 5× · 50 XP</text>
    <text x="350" y="278" text-anchor="end" font-family="Segoe UI, Arial" font-size="18" font-weight="800" fill="#6ee7b7">+82 XP</text>
    <text x="40" y="298" font-family="Segoe UI, Arial" font-size="10" fill="#64748b">liquidation at −50 XP · every candle is a real market print</text>
  </g>

  <!-- ============ CARD 3: TERMINAL ============ -->
  <g transform="translate(860,40)">
    <rect width="390" height="340" rx="16" fill="#0d1226" stroke="#8b5cf6" stroke-opacity="0.35"/>
    <rect width="390" height="34" rx="16" fill="#111735"/>
    <circle cx="20" cy="17" r="5" fill="#f87171"/><circle cx="38" cy="17" r="5" fill="#fbbf24"/><circle cx="56" cy="17" r="5" fill="#34d399"/>
    <text x="195" y="22" text-anchor="middle" font-family="Segoe UI, Arial" font-size="12" fill="#8b93b5">/dashboard — the Terminal</text>

    <text x="24" y="66" font-family="Segoe UI, Arial" font-size="19" font-weight="800" fill="#ffffff">Mosaic <tspan fill="url(#pbrand)">Points</tspan></text>
    <rect x="271" y="50" width="96" height="22" rx="11" fill="#f59e0b" fill-opacity="0.12" stroke="#f59e0b" stroke-opacity="0.5"/>
    <text x="319" y="65" text-anchor="middle" font-family="Segoe UI, Arial" font-size="11" fill="#fbbf24">🥇 GOLD TIER</text>

    <!-- level ring -->
    <circle cx="70" cy="140" r="38" stroke="#ffffff" stroke-opacity="0.08" stroke-width="8" fill="none"/>
    <path d="M70 102 a38 38 0 1 1 -26.9 11.1" stroke="url(#pbrand)" stroke-width="8" fill="none" stroke-linecap="round"/>
    <text x="70" y="146" text-anchor="middle" font-family="Segoe UI, Arial" font-size="22" font-weight="800" fill="#ffffff">7</text>
    <text x="70" y="160" text-anchor="middle" font-family="Segoe UI, Arial" font-size="8" fill="#64748b">LEVEL</text>

    <text x="128" y="126" font-family="Segoe UI, Arial" font-size="24" font-weight="800" fill="#ffffff">6,540 <tspan font-size="14" fill="#22d3ee">XP</tspan></text>
    <rect x="128" y="140" width="238" height="9" rx="4.5" fill="#ffffff" fill-opacity="0.08"/>
    <rect x="128" y="140" width="150" height="9" rx="4.5" fill="url(#pbrand)"/>
    <text x="128" y="168" font-family="Segoe UI, Arial" font-size="10" fill="#64748b">🔥 12-day streak · 6/8 quests · house stake +140 XP edge</text>

    <!-- allocation bars -->
    <g font-family="Segoe UI, Arial" font-size="11">
      <text x="24" y="212" fill="#8b93b5">AI Allocator — medium risk</text>
      <rect x="24" y="222" width="200" height="14" rx="4" fill="#22d3ee" fill-opacity="0.7"/><text x="232" y="233" fill="#67e8f9">Staking 30%</text>
      <rect x="24" y="242" width="166" height="14" rx="4" fill="#8b5cf6" fill-opacity="0.7"/><text x="198" y="253" fill="#c4b5fd">Uniswap LP 30%</text>
      <rect x="24" y="262" width="120" height="14" rx="4" fill="#34d399" fill-opacity="0.7"/><text x="152" y="273" fill="#6ee7b7">Aave 25%</text>
      <rect x="24" y="282" width="76" height="14" rx="4" fill="#f59e0b" fill-opacity="0.7"/><text x="108" y="293" fill="#fbbf24">Yearn 15%</text>
    </g>
    <text x="24" y="322" font-family="Segoe UI, Arial" font-size="10" fill="#64748b">Copy strategies on-chain · live backtests · equity curves · RSI/MACD</text>
  </g>
</svg>
